<?xml version="1.0" encoding="UTF-8" standalone="no"?><!DOCTYPE svg PUBLIC "-//W3C//DTD SVG 1.1//EN" "http://www.w3.org/Graphics/SVG/1.1/DTD/svg11.dtd"><svg width="100%" height="100%" viewBox="0 0 168 175" version="1.1" xmlns="http://www.w3.org/2000/svg" xmlns:xlink="http://www.w3.org/1999/xlink" xml:space="preserve" xmlns:serif="http://www.serif.com/" style="fill-rule:evenodd;clip-rule:evenodd;stroke-linecap:round;stroke-linejoin:round;stroke-miterlimit:1.5;"><rect id="Artboard1" x="-48.6" y="-26.64" width="253.8" height="253.8" style="fill:none;"/><g><path d="M21.24,100.08l0.642,4.038l4.038,0.642l-4.038,0.642l-0.642,4.038l-0.642,-4.038l-4.038,-0.642l4.038,-0.642l0.642,-4.038Z" style="fill:#ffef00;"/><path d="M107.28,0.36l1.777,11.183l11.183,1.777l-11.183,1.777l-1.777,11.183l-1.777,-11.183l-11.183,-1.777l11.183,-1.777l1.777,-11.183Z" style="fill:#ffef00;"/><path d="M12.96,82.08l1.777,11.183l11.183,1.777l-11.183,1.777l-1.777,11.183l-1.777,-11.183l-11.183,-1.777l11.183,-1.777l1.777,-11.183Z" style="fill:#ffef00;"/><path d="M154.44,141.12l1.777,11.183l11.183,1.777l-11.183,1.777l-1.777,11.183l-1.777,-11.183l-11.183,-1.777l11.183,-1.777l1.777,-11.183Z" style="fill:#ffef00;"/><path d="M115.2,0l0.642,4.038l4.038,0.642l-4.038,0.642l-0.642,4.038l-0.642,-4.038l-4.038,-0.642l4.038,-0.642l0.642,-4.038Z" style="fill:#ffef00;"/><path d="M142.56,158.76l0.642,4.038l4.038,0.642l-4.038,0.642l-0.642,4.038l-0.642,-4.038l-4.038,-0.642l4.038,-0.642l0.642,-4.038Z" style="fill:#ffef00;"/><path d="M77.351,163.491c0.246,2.535 7.662,0.905 10.043,0.566c35.649,-5.079 46.148,-45.852 29.37,-64.335c-14.692,-16.186 -54.247,-11.249 -63.528,-4.018c-4.021,3.133 -0.744,44.717 7.579,64.515c2.777,6.605 16.034,0.227 16.536,3.272Z" style="stroke:#000;stroke-width:1px;"/><circle id="Boule" cx="85.5" cy="126.9" r="22.14" style="fill:url(#_Radial1);"/><clipPath id="_clip2"><circle cx="85.5" cy="126.9" r="22.14"/></clipPath><g clip-path="url(#_clip2)"><path d="M102.6,145.8c9.444,-9.444 9.444,-24.756 -0,-34.2c-8.994,-8.994 -23.577,-8.994 -32.571,0c-8.521,8.521 -8.521,22.336 -0,30.857c8.047,8.048 21.095,8.048 29.142,0c7.575,-7.574 7.575,-19.854 0,-27.428c-7.1,-7.101 -18.613,-7.101 -25.714,-0c-6.627,6.627 -6.627,17.372 0,24c6.154,6.154 16.132,6.154 22.286,-0c5.681,-5.681 5.68,-14.891 -0,-20.572c-5.207,-5.207 -13.65,-5.207 -18.857,0c-4.734,4.734 -4.734,12.409 -0,17.143c4.26,4.26 11.168,4.26 15.428,-0c3.787,-3.787 3.787,-9.927 0,-13.714c-3.313,-3.314 -8.686,-3.314 -12,-0c-2.84,2.84 -2.84,7.445 0,10.285c2.367,2.367 6.205,2.367 8.572,0c1.893,-1.893 1.893,-4.963 -0,-6.857c-1.42,-1.42 -3.723,-1.42 -5.143,0c-0.947,0.947 -0.947,2.482 -0,3.429c0.473,0.473 1.241,0.473 1.714,-0" style="fill:none;stroke:#fff;stroke-opacity:0.31;stroke-width:0.06px;"/><path d="M72.507,113.357c-0.106,-0.342 1.972,-3.251 3.419,-3.696c0.567,-0.174 1.168,0.145 1.342,0.711c0.174,0.566 -0.144,1.167 -0.711,1.341c-0.458,0.141 -0.792,0.094 -1.351,0.361c-1.208,0.574 -2.628,1.517 -2.699,1.283Z" style="fill:url(#_Radial3);stroke:#fff;stroke-width:0.49px;"/><circle cx="70.74" cy="114.66" r="0.54" style="fill:url(#_Radial4);stroke:#fff;stroke-width:0.46px;"/><path d="M102.6,145.8c9.444,-9.444 9.444,-24.756 -0,-34.2c-8.994,-8.994 -23.577,-8.994 -32.571,0c-8.521,8.521 -8.521,22.336 -0,30.857c8.047,8.048 21.095,8.048 29.142,0c7.575,-7.574 7.575,-19.854 0,-27.428c-7.1,-7.101 -18.613,-7.101 -25.714,-0c-6.627,6.627 -6.627,17.372 0,24c6.154,6.154 16.132,6.154 22.286,-0c5.681,-5.681 5.68,-14.891 -0,-20.572c-5.207,-5.207 -13.65,-5.207 -18.857,0c-4.734,4.734 -4.734,12.409 -0,17.143c4.26,4.26 11.168,4.26 15.428,-0c3.787,-3.787 3.787,-9.927 0,-13.714c-3.313,-3.314 -8.686,-3.314 -12,-0c-2.84,2.84 -2.84,7.445 0,10.285c2.367,2.367 6.205,2.367 8.572,0c1.893,-1.893 1.893,-4.963 -0,-6.857c-1.42,-1.42 -3.723,-1.42 -5.143,0c-0.947,0.947 -0.947,2.482 -0,3.429c0.473,0.473 1.241,0.473 1.714,-0" style="fill:none;stroke:#fff;stroke-opacity:0.31;stroke-width:0.06px;"/></g><circle cx="85.5" cy="126.9" r="22.14" style="fill:none;stroke:#fff;stroke-width:1px;"/><g><path id="Queue" d="M126.362,114.899c1.412,-6.709 2.023,-11.134 12.148,-26.098c0.61,-0.903 9.125,-13.487 10.486,-8.685c1.106,3.901 -0.69,3.684 -12.118,20.286c-10.472,15.214 -4.356,20.169 -1.454,27.684c2.468,6.391 -0.835,23.087 -6.34,18.54c-0.887,-0.732 2.542,-9.699 2.033,-15.052c-0.513,-5.408 -5.813,-11.648 -4.755,-16.675Z" style="stroke:#000;stroke-width:1px;"/><path d="M53.601,94.669c-1.27,0.508 -20.182,27.905 -18.122,42.303c0.745,5.209 3.51,4.725 8.444,6.331c-4.204,-1.123 -4.768,0.263 -5.252,1.117c-2.863,5.049 2.991,16.565 4.483,19.204c0.982,1.737 6.435,10.609 27.25,9.871c6.255,-0.222 10.403,-5.14 10.547,-6.764c0.497,-5.568 -5.694,-7.229 -16.862,-4.686c3.724,-0.848 9.191,-15.85 3.811,-21.124c0,-0 -7.344,-21.962 -7.819,-21.772" style="stroke:#fff;stroke-width:1px;"/><path d="M115.62,94.309c1.27,0.508 20.182,27.905 18.123,42.303c-0.745,5.209 -3.511,5.805 -8.445,6.331c3.844,0.317 4.768,0.263 5.252,1.117c2.863,5.049 -2.991,16.565 -4.482,19.204c-0.983,1.737 -6.435,10.609 -27.25,9.871c-6.256,-0.222 -10.403,-5.14 -10.548,-6.764c-0.497,-5.568 5.694,-7.229 16.862,-4.686c-3.723,-0.848 -6.67,-21.25 -1.291,-26.524" style="stroke:#fff;stroke-width:1px;"/><path d="M52.709,123.476c1.143,-0.742 12.98,-9.557 16.653,-7.382c3.943,2.336 1.696,5.988 -1.742,5.776c6.756,-0.204 8.085,5.278 1.555,6.224c-0.311,0.045 4.121,0.207 5.229,1.305c1.107,1.098 0.07,4.165 -1.466,4.923c-5.044,2.491 -27.346,9.94 -29.015,8.981" style="stroke:#fff;stroke-width:1px;"/><path d="M120.093,121.676c-1.143,-0.742 -11.029,-6.791 -15.213,-5.942c-5.712,1.16 -3.738,3.513 0.302,3.976c-7.619,0.351 -8.644,5.997 -1.554,6.584c0.312,0.025 -4.122,0.567 -5.229,1.665c-1.108,1.098 0.087,3.754 1.465,4.563c1.485,0.873 8.559,4.604 14.24,6.894c4.437,1.789 8.333,3.585 11.194,3.527" style="stroke:#fff;stroke-width:1px;"/></g><g id="Cat-1" serif:id="Cat 1"><g id="tête"><path d="M85.32,41.4c29.406,-0 46.8,14.239 46.8,32.22c0,17.981 -17.034,28.98 -46.44,28.98c-29.406,-0 -47.88,-10.999 -47.88,-28.98c0,-17.981 18.114,-32.22 47.52,-32.22Z"/><path d="M46.025,54.629c0.655,-7.595 1.966,-22.784 5.815,-25.109c3.849,-2.325 17.28,11.16 17.28,11.16l34.56,-0.478c-0,-0 15.277,-14.535 18.72,-12.122c3.443,2.413 2.438,18.539 1.936,26.602" style="stroke:#000;stroke-width:1px;"/></g><path d="M49.528,47.931c0.243,-2.435 1.184,-13.655 3.515,-14.923c2.331,-1.269 9.256,5.692 10.471,7.312c0.036,0.084 -13.986,7.611 -13.986,7.611Z" style="fill:#ff95dc;stroke:#ff95dc;stroke-width:1px;"/><path d="M122.43,47.487c-0.018,-2.3 0.67,-14.46 -1.664,-15.725c-2.335,-1.266 -11.067,6.72 -12.343,8.132c-0.041,0.075 14.007,7.593 14.007,7.593Z" style="fill:#ff95dc;stroke:#ff95dc;stroke-width:1px;"/><g id="Nez"><path d="M84.48,81.205c-0.138,3.953 -0.119,3.977 -0.181,5.414c-0.121,2.785 -4.877,3.23 -5.578,3.191" style="fill:none;stroke:#fff;stroke-width:1px;"/><path d="M84.299,86.619c0.037,1.791 4.19,4.429 6.067,3.472" style="fill:none;stroke:#fff;stroke-width:1px;"/><path d="M84.499,81.218l-2.036,-2.396l4.101,0.019l-2.065,2.377Z" style="fill:#fff;stroke:#fff;stroke-width:1px;"/></g><g id="Moustache-gauche" serif:id="Moustache gauche"><path d="M49.124,80.411c-1.726,-1.731 -13.783,-0.999 -18.325,2.274" style="fill:none;stroke:#000;stroke-width:1px;"/><path d="M49.171,80.293c-5.094,-2.812 -18.022,4.837 -19.939,7.606" style="fill:none;stroke:#000;stroke-width:1px;"/></g><g id="Moustache-droite" serif:id="Moustache droite"><path d="M124.68,80.411c1.726,-1.731 13.782,-0.999 18.324,2.274" style="fill:none;stroke:#000;stroke-width:1px;"/><path d="M124.632,80.293c5.094,-2.812 18.022,4.837 19.939,7.606" style="fill:none;stroke:#000;stroke-width:1px;"/></g><path d="M56.409,68.258c1.764,0.357 4.544,0.648 7.56,0.648c3.016,-0 5.796,-0.291 7.56,-0.648c0,1.192 -3.387,2.16 -7.56,2.16c-4.172,-0 -7.56,-0.968 -7.56,-2.16Z" style="fill:#2f2f2f;stroke:#2f2f2f;stroke-width:2px;"/><path d="M97.809,68.978c1.764,0.357 4.544,0.648 7.56,0.648c3.016,-0 5.796,-0.291 7.56,-0.648c0,1.192 -3.387,2.16 -7.56,2.16c-4.172,-0 -7.56,-0.968 -7.56,-2.16Z" style="fill:#2f2f2f;stroke:#2f2f2f;stroke-width:2px;"/></g><path d="M52.036,96.56c4.541,4.14 50.202,7.594 65.246,0.416" style="fill:none;stroke:#ff0069;stroke-width:2px;"/><circle cx="84.659" cy="100.98" r="1.62" style="fill:#8bfeb2;"/></g><g id="Cat-11" serif:id="Cat 1"></g><g id="Oeil"></g><g id="Oeil1" serif:id="Oeil"></g><g id="Nez1" serif:id="Nez"></g><defs><radialGradient id="_Radial1" cx="0" cy="0" r="1" gradientUnits="userSpaceOnUse" gradientTransform="matrix(44.28,0,0,44.28,63.36,126.9)"><stop offset="0" style="stop-color:#9c77a3;stop-opacity:1"/><stop offset="0.51" style="stop-color:#9d8daf;stop-opacity:1"/><stop offset="1" style="stop-color:#a0d1d6;stop-opacity:1"/></radialGradient><radialGradient id="_Radial3" cx="0" cy="0" r="1" gradientUnits="userSpaceOnUse" gradientTransform="matrix(-0.630962,-2.05157,5.8496,-1.79905,74.6583,112.297)"><stop offset="0" style="stop-color:#9c77a3;stop-opacity:0.75"/><stop offset="0.51" style="stop-color:#9d8daf;stop-opacity:0.81"/><stop offset="1" style="stop-color:#a0d1d6;stop-opacity:1"/></radialGradient><radialGradient id="_Radial4" cx="0" cy="0" r="1" gradientUnits="userSpaceOnUse" gradientTransform="matrix(1.08,0,0,1.08,70.2,114.66)"><stop offset="0" style="stop-color:#9c77a3;stop-opacity:0.75"/><stop offset="0.51" style="stop-color:#9d8daf;stop-opacity:0.81"/><stop offset="1" style="stop-color:#a0d1d6;stop-opacity:1"/></radialGradient></defs></svg>